<svg xmlns="http://www.w3.org/2000/svg" xmlns:xlink="http://www.w3.org/1999/xlink" version="1.1" xml:space="preserve" viewBox="0 0 1080 1080">
<desc>Created with Fabric.js 5.2.4</desc>
<defs>
</defs>
<g transform="matrix(1 0 0 1 540 540)" id="41ae822e-bf53-47d5-b52b-cac292e2af38">
<rect style="stroke: none; stroke-width: 1; stroke-dasharray: none; stroke-linecap: butt; stroke-dashoffset: 0; stroke-linejoin: miter; stroke-miterlimit: 4; fill: rgb(255,255,255); fill-rule: nonzero; opacity: 1; visibility: hidden;" vector-effect="non-scaling-stroke" x="-540" y="-540" rx="0" ry="0" width="1080" height="1080"/>
</g>
<g transform="matrix(1 0 0 1 540 540)" id="3edf2dd1-60a8-44a8-beb9-e30ead5c1765">
</g>
<g transform="matrix(1 0 0 1 540 540)">
<g style="" vector-effect="non-scaling-stroke">
		<g transform="matrix(1 0 0 1 -313.42 -51.34)">
<path style="stroke: none; stroke-width: 1; stroke-dasharray: none; stroke-linecap: butt; stroke-dashoffset: 0; stroke-linejoin: miter; stroke-miterlimit: 4; fill: rgb(255,255,255); fill-rule: evenodd; opacity: 1;" vector-effect="non-scaling-stroke" transform=" translate(0, 0)" d="" stroke-linecap="round"/>
</g>
		<g transform="matrix(1 0 0 1 8.24 6.41)">
<path style="stroke: none; stroke-width: 1; stroke-dasharray: none; stroke-linecap: butt; stroke-dashoffset: 0; stroke-linejoin: miter; stroke-miterlimit: 4; fill: rgb(255,255,255); fill-rule: evenodd; opacity: 1;" vector-effect="non-scaling-stroke" transform=" translate(-321.65, -57.75)" d="M 55.431 15.527 C 31.41 27.156 25.632 48.906 41.914 66.408 C 53.049 78.377 44.322 88.602 32.704 77.2 C 21.432 66.138 10.231 80.613 20.562 92.891 C 31.55 105.949 60.219 101.573 67.922 85.661 C 72.377 76.459 70.915 70.983 61.203 60.5 C 50.686 49.148 49.95 44.03 57.744 36.46 C 63.521 30.85 66.473 31.844 63.368 38.355 C 58.38 48.814 69.62 59.225 77.274 51.236 C 93.677 34.115 76.166 5.489 55.431 15.527 M 183.242 14.034 C 182 14.533 180.486 16.192 179.877 17.721 C 179.268 19.249 175.027 28.375 170.453 38 C 160.584 58.763 152.804 80.907 152.624 88.747 C 152.347 100.822 167.095 105.273 169.389 93.806 C 170.007 90.715 170.007 90.715 172.267 94.107 C 181.553 108.049 197.966 98.36 206.677 73.795 C 215.229 49.68 206.132 31.225 191.005 41.997 C 187.358 44.593 188.192 42.415 195.463 30.357 C 202.269 19.071 194.969 9.322 183.242 14.034 M 322.383 15.895 C 298.431 27.227 292.72 49.001 309.087 66.594 C 320.473 78.833 311.088 88.867 299.426 76.924 C 289.347 66.603 278.214 79.713 286.889 91.687 C 299.958 109.729 337 98.831 337 76.944 C 337 70.448 335.003 66.782 326.954 58.5 C 318.181 49.473 317.614 44.051 324.689 36.807 C 330.596 30.757 333.318 31.602 330.402 38.58 C 325.985 49.153 337.145 59.341 344.478 51.429 C 360.852 33.761 343.525 5.894 322.383 15.895 M 605.402 20.427 C 602.956 21.492 601.939 22.89 600.573 27.066 C 596.174 40.515 594.41 42.504 588.363 40.835 C 584.798 39.85 584.415 39.971 581.789 42.91 C 576.913 48.368 579.341 57 585.752 57 C 587.838 57 587.825 57.11 585.014 63.308 C 567.962 100.917 599.502 116.368 620.109 80.5 C 627.271 68.033 621.843 62.632 612.32 72.75 C 599.319 86.564 596.404 81.038 605.983 60.74 C 608.544 55.313 611.184 54.107 616.759 55.818 C 621.051 57.135 623.365 56.129 625.49 52.02 C 628.636 45.936 626.007 40 620.167 40 C 616.013 40 615.828 39.274 618.593 33.817 C 623.256 24.615 615.01 16.244 605.402 20.427 M 113.93 33.75 C 113.794 40.985 113.029 41.305 107.563 36.416 C 100.656 30.239 100.21 30.325 102.612 37.376 C 104.674 43.428 104.24 43.736 97.5 41 C 90.622 38.208 90.119 38.64 93.507 44.421 C 96.19 49 96.19 49 92.22 49 C 81.644 49 80.026 50.568 86.425 54.616 C 90.85 57.415 90.85 57.415 84.709 60.458 C 77.206 64.175 76.259 66 81.835 66 C 89.352 66 89.667 66.754 84.388 72.114 C 78.885 77.701 79.131 78.783 85.5 77 C 91.295 75.377 91.463 75.62 88.867 81.867 C 86.244 88.177 86.946 89.151 92.015 86.234 C 97.201 83.249 97 83.06 97 90.941 C 97 99.487 98.038 100.318 101.447 94.5 C 104.826 88.734 104.965 88.772 108.776 96.5 C 112.765 104.589 114 104.707 114 97 C 114 89.863 114.201 89.799 119.691 95.188 C 124.734 100.137 125.611 99.751 124.308 93.159 C 123.339 88.26 123.339 88.26 128.698 90.63 C 136.967 94.287 137.732 93.704 133.487 86.98 C 130.975 83 130.975 83 137.237 82.985 C 142.844 82.971 147.236 81.816 145.971 80.689 C 145.712 80.458 143.523 79.037 141.106 77.531 C 136.713 74.793 136.713 74.793 143.072 71.647 C 151.222 67.614 151.814 66 145.142 66 C 138.73 66 138.267 65.103 142.539 60.962 C 146.271 57.345 147.351 53.252 144.25 54.478 C 136.934 57.371 135.905 56.567 138.684 50.126 C 141.836 42.822 141.412 41.968 136.346 45.411 C 131.238 48.882 131.354 48.97 130.569 41 C 129.755 32.745 129.1 32.447 125.448 38.679 C 122.706 43.357 122.706 43.357 119.339 36.679 C 115.527 29.117 114.032 28.307 113.93 33.75 M 237.698 40.444 C 216.518 47.999 202.846 79.968 214.747 94.111 C 223.011 103.932 237.883 102.757 247.791 91.5 C 256.689 81.391 255.238 71.267 245.978 78.847 C 239.166 84.422 234.642 85.472 231.655 82.171 C 228.471 78.653 229.535 77.333 236.112 76.646 C 249.316 75.266 258.111 67.145 258.764 55.729 C 259.516 42.582 250.35 35.931 237.698 40.444 M 361.03 40.279 C 357.987 41.819 357.173 43.49 348.256 66.5 C 338.043 92.856 352.887 111.582 370.664 94.768 C 373.706 91.89 376 91.726 376 94.385 C 376 108.194 400.766 96.442 409.565 78.458 C 414.227 68.927 409.622 61.938 403.652 69.486 C 390.486 86.136 389.165 82.76 399.644 59.245 C 404.66 47.989 404.743 46.016 400.384 41.657 C 395.693 36.966 385.817 39.482 384.44 45.719 C 381.543 58.836 373.217 76.522 368.785 78.971 C 362.221 82.598 363.381 75.245 372.13 57.772 C 378.713 44.627 372.326 34.563 361.03 40.279 M 430.5 40.386 C 426.566 42.1 425.44 43.588 424 48.97 C 423.342 51.429 421.441 56.829 419.775 60.97 C 409.496 86.515 410.327 100 422.18 100 C 428.285 100 430.477 96.749 431.282 86.5 C 431.735 80.726 435.94 71.552 440.586 66.201 C 445.096 61.008 445.769 62.742 442.742 71.755 C 432.26 102.965 453.945 111.758 473.66 84.292 C 483.493 70.592 479.555 58.933 469.505 71.993 C 465.348 77.396 462.398 80 460.435 80 C 458.914 80 461.04 72.882 465.253 63.867 C 471.227 51.082 471.447 49.952 468.737 45.97 C 462.851 37.323 458.404 37.228 449.202 45.555 C 442.181 51.909 442.215 51.896 442.782 48.032 C 443.675 41.951 436.77 37.653 430.5 40.386 M 556.28 40.111 C 543.954 43.673 530.188 62.02 528.399 77.271 C 525.749 99.863 550.23 109.179 565.791 91.5 C 574.689 81.391 573.238 71.267 563.978 78.847 C 557.166 84.422 552.642 85.472 549.655 82.171 C 546.485 78.669 547.539 77.333 554.004 76.657 C 568.303 75.163 577.005 66.505 576.996 53.782 C 576.988 42.193 568.487 36.583 556.28 40.111 M 504.698 41.444 C 487.108 47.718 481.78 62.737 493 74.421 C 496.3 77.858 499 81.419 499 82.335 C 499 85.182 494.618 84.327 492.158 81 C 487.68 74.942 478 78.352 478 85.987 C 478 103.453 514.223 104.897 518.563 87.604 C 519.652 83.267 518.209 80.174 511.965 73.463 C 505.506 66.519 504.383 62.773 507.829 59.655 C 511.447 56.381 513.983 57.571 511.491 61.374 C 507.226 67.882 518.737 74.016 524.306 68.203 C 536.827 55.133 522.217 35.195 504.698 41.444 M 107 45.838 C 96.033 47.912 89.334 63.952 94.908 74.79 C 105.379 95.146 134.333 88.753 134.333 66.084 C 134.333 52.011 122.135 42.976 107 45.838 M 241.278 56.518 C 236.678 59.74 234.228 64.409 237.573 63.579 C 241.226 62.671 245 59.24 245 56.826 C 245 54.603 244.117 54.53 241.278 56.518 M 559.278 56.518 C 554.678 59.74 552.228 64.409 555.573 63.579 C 559.226 62.671 563 59.24 563 56.826 C 563 54.603 562.117 54.53 559.278 56.518 M 183.341 61.208 C 178.17 66.891 175.868 71.695 176.187 76.135 C 176.757 84.058 182.73 81.705 186.95 71.895 C 191.239 61.924 188.925 55.072 183.341 61.208" stroke-linecap="round"/>
</g>
</g>
</g>
</svg>